<svg xmlns="http://www.w3.org/2000/svg" viewBox="0 0 64 64">
  <title>geojson.app</title>
  <defs><linearGradient id="bg" x1="0" y1="0" x2="0" y2="1"><stop offset="0" stop-color="#5b30e0"/><stop offset="1" stop-color="#2e1488"/></linearGradient></defs>
  <rect width="64" height="64" rx="14" fill="url(#bg)"/>
  <path d="M10 33v7l22 12.5V45.5z" fill="#4527b8"/>
  <path d="M54 33v7L32 52.5V45.5z" fill="#24106e"/>
  <path d="M32 20.5 54 33 32 45.5 10 33z" fill="#8468ff"/>
  <path d="M10 33 32 45.5 54 33" fill="none" stroke="#b7a8ff" stroke-width="1" stroke-linejoin="round"/>
  <path d="M40.1 17.6 32.2 29.6 40.1 34.1z" fill="#e2dbff"/>
  <path d="M40.1 17.6 40.1 34.1 48.1 29.6z" fill="#a996ff"/>
  <path d="M27.2 12.5 16.2 31.5 27.2 37.8z" fill="#fff"/>
  <path d="M27.2 12.5 27.2 37.8 38.2 31.5z" fill="#c9bcff"/>
  <path d="M12.2 32.5 26.5 41.1 39.3 40.1 50.7 33.6" fill="none" stroke="#5eead4" stroke-width="3" stroke-linecap="round" stroke-linejoin="round"/>
  <g fill="#fff" stroke="#14b8a6" stroke-width="1.6"><circle cx="26.5" cy="41.1" r="2.4"/><circle cx="39.3" cy="40.1" r="2.4"/></g>
</svg>
